<svg xmlns="http://www.w3.org/2000/svg" viewBox="0 0 48 48"><defs><style>.cls-3{{fill:#db5669}}.cls-4{{fill:#f26674}}.cls-7{{fill:#b5e08c}}.cls-10{{fill:#425b72}}</style></defs><g id="Online_Shop" data-name="Online Shop"><path style="fill:#dad7e5" d="M1 9h46v38H1z"/><path d="M47 9v36h-8A36 36 0 0 1 3 9z" style="fill:#edebf2"/><path className="cls-3" d="M21 35H5l1-14h14c1 14 .81 11.26 1 14z"/><path className="cls-4" d="M20.86 33h-3.12a10 10 0 0 1-10-10.71L7.86 21H20z"/><path className="cls-3" d="M15 23v-3a2 2 0 0 0-4 0v3a1 1 0 0 1-2 0v-3a4 4 0 0 1 8 0v3a1 1 0 0 1-2 0z"/><path className="cls-4" d="M10 20c0 3.16.15 3.46-.5 3.85A1 1 0 0 0 11 23v-3a2 2 0 0 1 1.5-1.93A2 2 0 0 0 10 20zM12.5 16.05A4 4 0 0 1 16 20c0 3.16.15 3.46-.5 3.85A1 1 0 0 0 17 23v-3a4 4 0 0 0-4.5-3.95z"/><path style="fill:#6fabe6" d="M1 1h46v8H1z"/><path d="M47 1v6H9a6 6 0 0 1-6-6z" style="fill:#82bcf4"/><path className="cls-7" d="M6 5a1 1 0 0 0-2 0 1 1 0 0 0 2 0z"/><path d="M10 5a1 1 0 0 0-2 0 1 1 0 0 0 2 0z" style="fill:#ffde76"/><path className="cls-4" d="M14 5a1 1 0 0 0-2 0 1 1 0 0 0 2 0z"/><path d="M39.41 38.41c-.77.79-.74.59-9.41.59a2 2 0 0 1-1.41-3.41c.79-.79.71-.59 9.41-.59a2 2 0 0 1 1.41 3.41z" style="fill:#9dcc6b"/><path className="cls-7" d="M40 37c0 1.34.35 1-9 1a2 2 0 0 1-2-2c0-1.34-.35-1 9-1a2 2 0 0 1 2 2z"/><path className="cls-10" d="M43 22H28a1 1 0 0 1 0-2h15a1 1 0 0 1 0 2zM40 26H28a1 1 0 0 1 0-2h12a1 1 0 0 1 0 2zM34 30h-6a1 1 0 0 1 0-2h6a1 1 0 0 1 0 2z"/></g></svg>